<svg xmlns="http://www.w3.org/2000/svg" viewBox="0 0 32 32" width="32" height="32" fill="none">
  <!-- Left Leaf (Environmental - Lime Green) -->
  <path d="M16 2C8.27 2 2 8.27 2 16c0 7.73 6.27 14 14 14 0 0-5.5-5.5-5.5-14S16 2 16 2z" fill="#2EE08A" opacity="0.95" />
  
  <!-- Right Leaf (Social - Blue) -->
  <path d="M16 2c7.73 0 14 6.27 14 14 0 7.73-6.27 14-14 14 0 0 5.5-5.5 5.5-14S16 2 16 2z" fill="#4EA8DE" opacity="0.95" />
  
  <!-- Center Bud (Governance - Gold) -->
  <path d="M16 9c-2 2.5-2 6.5 0 9.5 2-3 2-7 0-9.5z" fill="#C9A24B" />
</svg>